<svg xmlns="http://www.w3.org/2000/svg" xmlns:xlink="http://www.w3.org/1999/xlink" viewBox="0 0 600 600"><defs><style>.cls-1{isolation:isolate;}.cls-2{fill:#fff;}.cls-3{opacity:0.3;}.cls-4{fill:url(#linear-gradient);}.cls-5{fill:url(#linear-gradient-2);}.cls-27,.cls-38,.cls-6,.cls-60,.cls-62,.cls-64,.cls-82,.cls-86,.cls-9{fill:none;}.cls-6,.cls-86{stroke:#2c2a6b;}.cls-38,.cls-6,.cls-60,.cls-62,.cls-64,.cls-69,.cls-82,.cls-86,.cls-9{stroke-miterlimit:10;}.cls-6{stroke-width:0.25px;}.cls-7{opacity:0.5;}.cls-24,.cls-40,.cls-8{fill:#131729;}.cls-38,.cls-69,.cls-9{stroke:#131729;}.cls-10{fill:url(#linear-gradient-3);}.cls-11{fill:url(#linear-gradient-4);}.cls-12,.cls-13,.cls-14,.cls-15,.cls-16,.cls-17,.cls-18,.cls-19,.cls-20{fill-rule:evenodd;}.cls-12{fill:url(#linear-gradient-5);}.cls-13{fill:url(#linear-gradient-6);}.cls-14{fill:url(#linear-gradient-7);}.cls-15{fill:url(#linear-gradient-8);}.cls-16{fill:url(#linear-gradient-9);}.cls-17{fill:url(#linear-gradient-10);}.cls-18{fill:url(#linear-gradient-11);}.cls-19{fill:url(#linear-gradient-12);}.cls-20{fill:url(#linear-gradient-13);}.cls-21{fill:url(#linear-gradient-14);}.cls-22{fill:url(#linear-gradient-15);}.cls-23{fill:url(#radial-gradient);}.cls-24{opacity:0.4;}.cls-24,.cls-40{mix-blend-mode:multiply;}.cls-25{fill:url(#radial-gradient-2);}.cls-26{fill:url(#linear-gradient-16);}.cls-27{stroke:#1e2150;stroke-linejoin:round;stroke-width:0.26px;}.cls-27,.cls-38,.cls-60,.cls-62,.cls-64,.cls-82,.cls-86{stroke-linecap:round;}.cls-28{fill:#2c2a6b;}.cls-29{fill:url(#linear-gradient-17);}.cls-30{fill:#731b27;}.cls-31{fill:#d0d2d3;}.cls-32{fill:url(#linear-gradient-18);}.cls-33{fill:#22598a;}.cls-34{fill:url(#linear-gradient-19);}.cls-35{fill:#d5556e;}.cls-36{fill:url(#linear-gradient-20);}.cls-37{fill:#999;}.cls-38{stroke-width:2.5px;}.cls-39{fill:url(#linear-gradient-21);}.cls-40{opacity:0.7;}.cls-41{fill:url(#linear-gradient-22);}.cls-42{fill:url(#linear-gradient-23);}.cls-43{fill:url(#linear-gradient-24);}.cls-44{fill:#887fb9;}.cls-45{fill:url(#linear-gradient-25);}.cls-46{fill:url(#linear-gradient-26);}.cls-47{fill:url(#linear-gradient-27);}.cls-48{fill:url(#linear-gradient-28);}.cls-49{fill:url(#linear-gradient-29);}.cls-50{fill:url(#linear-gradient-30);}.cls-51{fill:url(#linear-gradient-31);}.cls-52{fill:url(#linear-gradient-32);}.cls-53{fill:url(#linear-gradient-33);}.cls-54{fill:url(#linear-gradient-34);}.cls-55{fill:#ed4164;}.cls-56{fill:#d32e56;}.cls-57{fill:url(#linear-gradient-35);}.cls-58{fill:url(#linear-gradient-36);}.cls-59{fill:#ea3e63;}.cls-60,.cls-62,.cls-64,.cls-82{stroke:#231f20;}.cls-60{stroke-width:0.58px;}.cls-61{fill:#231f20;}.cls-62{stroke-width:0.46px;}.cls-63{fill:url(#linear-gradient-37);}.cls-64,.cls-86{stroke-width:0.5px;}.cls-65{fill:url(#linear-gradient-38);}.cls-66{fill:url(#linear-gradient-39);}.cls-67{fill:url(#linear-gradient-40);}.cls-68{fill:url(#linear-gradient-41);}.cls-69{fill:#d82a36;stroke-width:0.96px;}.cls-70{fill:url(#linear-gradient-42);}.cls-71{fill:url(#linear-gradient-43);}.cls-72{fill:#f2d03a;}.cls-73{fill:#d1922a;}.cls-74{fill:url(#linear-gradient-44);}.cls-75{fill:url(#linear-gradient-45);}.cls-76{fill:url(#linear-gradient-46);}.cls-77{fill:url(#linear-gradient-47);}.cls-78{fill:url(#linear-gradient-48);}.cls-79{fill:url(#linear-gradient-49);}.cls-80{fill:url(#linear-gradient-50);}.cls-81{fill:url(#linear-gradient-51);}.cls-82{stroke-width:0.75px;}.cls-83{fill:url(#linear-gradient-52);}.cls-84{fill:#fafafa;opacity:0.3;mix-blend-mode:overlay;}.cls-85{fill:url(#linear-gradient-53);}</style><linearGradient id="linear-gradient" x1="629.56" y1="150.69" x2="167.04" y2="354.17" gradientUnits="userSpaceOnUse"><stop offset="0" stop-color="#7e7cb9" stop-opacity="0.3"/><stop offset="0.1" stop-color="#7472b0" stop-opacity="0.38"/><stop offset="0.68" stop-color="#403e7e" stop-opacity="0.83"/><stop offset="1" stop-color="#2c2a6b"/></linearGradient><linearGradient id="linear-gradient-2" x1="651.91" y1="201.5" x2="189.39" y2="404.98" xlink:href="#linear-gradient"/><linearGradient id="linear-gradient-3" x1="60.11" y1="505.78" x2="143.85" y2="535.52" gradientUnits="userSpaceOnUse"><stop offset="0" stop-color="#897fba"/><stop offset="0.03" stop-color="#8379b5"/><stop offset="0.2" stop-color="#645d9a"/><stop offset="0.38" stop-color="#4b4685"/><stop offset="0.56" stop-color="#3a3777"/><stop offset="0.76" stop-color="#2f2d6e"/><stop offset="1" stop-color="#2c2a6b"/></linearGradient><linearGradient id="linear-gradient-4" x1="58.1" y1="511.44" x2="141.84" y2="541.18" xlink:href="#linear-gradient-3"/><linearGradient id="linear-gradient-5" x1="536.26" y1="377.43" x2="504.17" y2="499.12" gradientUnits="userSpaceOnUse"><stop offset="0.05" stop-color="#ef666d"/><stop offset="0.28" stop-color="#e9606a"/><stop offset="0.58" stop-color="#d95160"/><stop offset="0.91" stop-color="#be3751"/><stop offset="1" stop-color="#b62f4c"/></linearGradient><linearGradient id="linear-gradient-6" x1="524.59" y1="374.35" x2="492.5" y2="496.05" xlink:href="#linear-gradient-5"/><linearGradient id="linear-gradient-7" x1="532.41" y1="376.41" x2="500.32" y2="498.11" xlink:href="#linear-gradient-5"/><linearGradient id="linear-gradient-8" x1="516.86" y1="372.31" x2="484.77" y2="494.01" xlink:href="#linear-gradient-5"/><linearGradient id="linear-gradient-9" x1="517.6" y1="372.51" x2="485.52" y2="494.2" xlink:href="#linear-gradient-5"/><linearGradient id="linear-gradient-10" x1="509.84" y1="370.46" x2="477.75" y2="492.16" xlink:href="#linear-gradient-5"/><linearGradient id="linear-gradient-11" x1="543.8" y1="379.41" x2="511.71" y2="501.11" xlink:href="#linear-gradient-5"/><linearGradient id="linear-gradient-12" x1="530.79" y1="375.98" x2="498.7" y2="497.68" xlink:href="#linear-gradient-5"/><linearGradient id="linear-gradient-13" x1="556.55" y1="382.78" x2="524.46" y2="504.47" xlink:href="#linear-gradient-5"/><linearGradient id="linear-gradient-14" x1="617.39" y1="447.59" x2="636.92" y2="477.1" gradientTransform="matrix(-0.96, -0.29, -0.29, 0.96, 1241.85, 208.73)" gradientUnits="userSpaceOnUse"><stop offset="0" stop-color="#887fb9"/><stop offset="0.02" stop-color="#837ab5"/><stop offset="0.2" stop-color="#645d9a"/><stop offset="0.37" stop-color="#4b4785"/><stop offset="0.56" stop-color="#3a3777"/><stop offset="0.76" stop-color="#2f2d6e"/><stop offset="1" stop-color="#2c2a6b"/></linearGradient><linearGradient id="linear-gradient-15" x1="595.44" y1="449.81" x2="613.95" y2="477.79" xlink:href="#linear-gradient-14"/><radialGradient id="radial-gradient" cx="412.48" cy="450.43" r="114.76" gradientUnits="userSpaceOnUse"><stop offset="0.11" stop-color="#b1dccc"/><stop offset="0.2" stop-color="#9bcec6"/><stop offset="0.48" stop-color="#59a5b5"/><stop offset="0.72" stop-color="#2987a8"/><stop offset="0.9" stop-color="#0b75a0"/><stop offset="1" stop-color="#006e9d"/></radialGradient><radialGradient id="radial-gradient-2" cx="373.09" cy="486.04" r="64.88" xlink:href="#radial-gradient"/><linearGradient id="linear-gradient-16" x1="520.59" y1="486.84" x2="503.11" y2="519.45" xlink:href="#radial-gradient"/><linearGradient id="linear-gradient-17" x1="137.73" y1="230.39" x2="171.92" y2="295" gradientUnits="userSpaceOnUse"><stop offset="0.06" stop-color="#f3d13d"/><stop offset="0.96" stop-color="#ee4164"/></linearGradient><linearGradient id="linear-gradient-18" x1="409.05" y1="350.79" x2="472.84" y2="293.27" gradientTransform="translate(850.42 679.82) rotate(-176.44)" gradientUnits="userSpaceOnUse"><stop offset="0" stop-color="#3255a4"/><stop offset="0.07" stop-color="#385ea9"/><stop offset="0.99" stop-color="#8ed4e6"/></linearGradient><linearGradient id="linear-gradient-19" x1="114.21" y1="261.53" x2="163.91" y2="355.44" xlink:href="#linear-gradient-17"/><linearGradient id="linear-gradient-20" x1="299.57" y1="461.44" x2="212.03" y2="448.41" gradientUnits="userSpaceOnUse"><stop offset="0" stop-color="#f1f1f2"/><stop offset="1" stop-color="#e6e7e8"/></linearGradient><linearGradient id="linear-gradient-21" x1="322.77" y1="342.2" x2="225.2" y2="289.51" gradientUnits="userSpaceOnUse"><stop offset="0.02" stop-color="#282e59"/><stop offset="0.19" stop-color="#212648"/><stop offset="0.43" stop-color="#191e37"/><stop offset="0.69" stop-color="#14192c"/><stop offset="1" stop-color="#131729"/></linearGradient><linearGradient id="linear-gradient-22" x1="398.01" y1="308.24" x2="427.06" y2="352.66" gradientTransform="translate(-33.1 45.9) rotate(-6.09)" gradientUnits="userSpaceOnUse"><stop offset="0.06" stop-color="#f3d13d"/><stop offset="0.09" stop-color="#f3c640"/><stop offset="0.23" stop-color="#f19d4b"/><stop offset="0.36" stop-color="#f07c54"/><stop offset="0.5" stop-color="#ef625b"/><stop offset="0.65" stop-color="#ef5060"/><stop offset="0.8" stop-color="#ee4563"/><stop offset="0.96" stop-color="#ee4164"/></linearGradient><linearGradient id="linear-gradient-23" x1="389.46" y1="313.84" x2="418.51" y2="358.25" gradientTransform="matrix(1, 0, 0, 1, 0, 0)" xlink:href="#linear-gradient-22"/><linearGradient id="linear-gradient-24" x1="406.56" y1="302.65" x2="435.61" y2="347.06" gradientTransform="matrix(1, 0, 0, 1, 0, 0)" xlink:href="#linear-gradient-22"/><linearGradient id="linear-gradient-25" x1="455.3" y1="305.43" x2="453.21" y2="349.26" gradientTransform="translate(47.33 -56.16) rotate(7.47)" xlink:href="#linear-gradient-22"/><linearGradient id="linear-gradient-26" x1="458.16" y1="305.57" x2="456.07" y2="349.39" gradientTransform="matrix(1, 0, 0, 1, 0, 0)" xlink:href="#linear-gradient-22"/><linearGradient id="linear-gradient-27" x1="452.45" y1="305.29" x2="450.36" y2="349.12" gradientTransform="matrix(1, 0, 0, 1, 0, 0)" xlink:href="#linear-gradient-22"/><linearGradient id="linear-gradient-28" x1="517.34" y1="172.97" x2="226.21" y2="392.49" gradientUnits="userSpaceOnUse"><stop offset="0" stop-color="#d4ebe2"/><stop offset="0.11" stop-color="#afd3d4"/><stop offset="0.27" stop-color="#7bb2bf"/><stop offset="0.44" stop-color="#4f96ae"/><stop offset="0.6" stop-color="#2d80a1"/><stop offset="0.75" stop-color="#157198"/><stop offset="0.89" stop-color="#066792"/><stop offset="1" stop-color="#016490"/></linearGradient><linearGradient id="linear-gradient-29" x1="576.09" y1="250.89" x2="284.96" y2="470.41" xlink:href="#linear-gradient-28"/><linearGradient id="linear-gradient-30" x1="572.87" y1="246.62" x2="281.74" y2="466.14" xlink:href="#linear-gradient-28"/><linearGradient id="linear-gradient-31" x1="560.99" y1="230.85" x2="269.85" y2="450.38" xlink:href="#linear-gradient-28"/><linearGradient id="linear-gradient-32" x1="526.13" y1="184.63" x2="235" y2="404.15" gradientTransform="translate(178.18 -73.67) rotate(23.95)" xlink:href="#linear-gradient-28"/><linearGradient id="linear-gradient-33" x1="535.67" y1="197.28" x2="244.54" y2="416.81" gradientTransform="translate(112.69 -74.5) rotate(16.13)" xlink:href="#linear-gradient-28"/><linearGradient id="linear-gradient-34" x1="116.23" y1="317.27" x2="209.36" y2="409.62" xlink:href="#linear-gradient-28"/><linearGradient id="linear-gradient-35" x1="420.78" y1="136.4" x2="416.35" y2="138.92" xlink:href="#linear-gradient-3"/><linearGradient id="linear-gradient-36" x1="464.7" y1="198.99" x2="378.61" y2="172.77" gradientUnits="userSpaceOnUse"><stop offset="0" stop-color="#ef8168"/><stop offset="0.5" stop-color="#ed797b"/><stop offset="1" stop-color="#ec738a"/></linearGradient><linearGradient id="linear-gradient-37" x1="379.56" y1="141.77" x2="400.12" y2="172.62" gradientUnits="userSpaceOnUse"><stop offset="0.11" stop-color="#b1dccc"/><stop offset="1" stop-color="#006e9d"/></linearGradient><linearGradient id="linear-gradient-38" x1="466.98" y1="148.27" x2="389.5" y2="163.14" xlink:href="#linear-gradient-3"/><linearGradient id="linear-gradient-39" x1="404.95" y1="157.01" x2="448.12" y2="147.35" gradientUnits="userSpaceOnUse"><stop offset="0.41" stop-color="#fff" stop-opacity="0"/><stop offset="0.49" stop-color="#fff" stop-opacity="0.02"/><stop offset="0.59" stop-color="#fff" stop-opacity="0.07"/><stop offset="0.69" stop-color="#fff" stop-opacity="0.16"/><stop offset="0.8" stop-color="#fff" stop-opacity="0.29"/><stop offset="0.91" stop-color="#fff" stop-opacity="0.45"/><stop offset="1" stop-color="#fff" stop-opacity="0.6"/></linearGradient><linearGradient id="linear-gradient-40" x1="341.33" y1="386.5" x2="282.33" y2="377.72" gradientTransform="translate(5.51 -4.36) rotate(0.82)" gradientUnits="userSpaceOnUse"><stop offset="0.06" stop-color="#ef8168"/><stop offset="0.53" stop-color="#ed797b"/><stop offset="1" stop-color="#ec738a"/></linearGradient><linearGradient id="linear-gradient-41" x1="367.52" y1="416.92" x2="263.5" y2="401.45" xlink:href="#linear-gradient-20"/><linearGradient id="linear-gradient-42" x1="399.64" y1="288.94" x2="176.99" y2="288.16" xlink:href="#linear-gradient-21"/><linearGradient id="linear-gradient-43" x1="332.69" y1="156.98" x2="333.96" y2="173.42" xlink:href="#linear-gradient-3"/><linearGradient id="linear-gradient-44" x1="263.69" y1="178.16" x2="321.7" y2="223.06" xlink:href="#linear-gradient-3"/><linearGradient id="linear-gradient-45" x1="264.56" y1="176.78" x2="322.57" y2="221.68" xlink:href="#linear-gradient-3"/><linearGradient id="linear-gradient-46" x1="241.53" y1="166.95" x2="296.18" y2="179.6" xlink:href="#linear-gradient-3"/><linearGradient id="linear-gradient-47" x1="318.46" y1="146.12" x2="283.44" y2="189.56" xlink:href="#linear-gradient-3"/><linearGradient id="linear-gradient-48" x1="271.42" y1="189.89" x2="341.17" y2="156.43" gradientUnits="userSpaceOnUse"><stop offset="0.11" stop-color="#fff" stop-opacity="0"/><stop offset="0.43" stop-color="#fff" stop-opacity="0.01"/><stop offset="0.57" stop-color="#fff" stop-opacity="0.04"/><stop offset="0.67" stop-color="#fff" stop-opacity="0.09"/><stop offset="0.75" stop-color="#fff" stop-opacity="0.16"/><stop offset="0.83" stop-color="#fff" stop-opacity="0.25"/><stop offset="0.9" stop-color="#fff" stop-opacity="0.36"/><stop offset="0.96" stop-color="#fff" stop-opacity="0.49"/><stop offset="1" stop-color="#fff" stop-opacity="0.6"/></linearGradient><linearGradient id="linear-gradient-49" x1="289.46" y1="157.87" x2="275.67" y2="179.1" gradientUnits="userSpaceOnUse"><stop offset="0.05" stop-color="#f0666d"/><stop offset="0.28" stop-color="#ea606a"/><stop offset="0.58" stop-color="#da5160"/><stop offset="0.91" stop-color="#bf3751"/><stop offset="1" stop-color="#b72f4c"/></linearGradient><linearGradient id="linear-gradient-50" x1="424.96" y1="294.11" x2="351.79" y2="293.13" xlink:href="#linear-gradient-36"/><linearGradient id="linear-gradient-51" x1="385.86" y1="201.11" x2="339.29" y2="246.5" gradientUnits="userSpaceOnUse"><stop offset="0.11" stop-color="#fff" stop-opacity="0"/><stop offset="0.24" stop-color="#fff" stop-opacity="0.02"/><stop offset="0.39" stop-color="#fff" stop-opacity="0.07"/><stop offset="0.54" stop-color="#fff" stop-opacity="0.16"/><stop offset="0.7" stop-color="#fff" stop-opacity="0.29"/><stop offset="0.87" stop-color="#fff" stop-opacity="0.45"/><stop offset="1" stop-color="#fff" stop-opacity="0.6"/></linearGradient><linearGradient id="linear-gradient-52" x1="39.09" y1="171" x2="65.7" y2="157.01" xlink:href="#radial-gradient"/><linearGradient id="linear-gradient-53" x1="177.37" y1="173.1" x2="198.9" y2="196.77" xlink:href="#radial-gradient"/></defs><g class="cls-1"><g id="Layer_2" data-name="Layer 2"><g id="Layer_1-2" data-name="Layer 1"><rect class="cls-2" width="600" height="600"/><g id="bg"><g class="cls-3"><path class="cls-4" d="M437.84,437.3C382.39,463.68,61.2,540.83,47.86,365S290.34,82.22,385,74.91s165.57,37,131.14,99.1-71.21,87.61-17.93,101.26C569.31,293.51,628.27,346.68,437.84,437.3Z"/><path class="cls-5" d="M539.91,270.05c-1.59,6.81-15.12,8.35-30.84,4.67s-27.65-11.18-26.05-18,15.62-9.36,31.33-5.68S541.51,263.23,539.91,270.05Z"/></g><path class="cls-6" d="M222.45,260.08S132.3,254.52,69.7,252.7s22.69-26.12,47-22.19c0,0-41.84-20.3-6.64-28.73s59.86,30.6,59.86,30.6S149.42,192.59,222.45,260.08Z"/><g class="cls-7"><path class="cls-2" d="M281.16,324.77C512.6,345.75,585.43,185,585.43,185H571.35s-55.7,122.57-255.59,108.11c-154.43-11.18-234.4-33-307.89-13.22v73.81C62.58,333.38,152.65,313.12,281.16,324.77Z"/><path class="cls-2" d="M558,275.56s-74,83.65-308.32,76.11C131,347.85,54.46,362,7.87,376.93v74.52c56.43,29,155.82,59.54,316.53,49.2C612,482.13,607,276.4,558,275.56Z"/></g><path class="cls-2" d="M401.05,223.36s-85,11.52-177.26-48,1.22-29,1.22-29-12-35.22,22.18-22.7,58.45,52.84,58.45,52.84-14.08-24.83.79-25.92S323.1,218.27,401.05,223.36Z"/></g><g id="ground"><ellipse class="cls-8" cx="303.17" cy="521.72" rx="210" ry="5.34"/><ellipse class="cls-9" cx="520.67" cy="529.54" rx="18.59" ry="2.48"/><ellipse class="cls-9" cx="93.17" cy="533.82" rx="10.01" ry="1.34"/><ellipse class="cls-9" cx="109.92" cy="528.4" rx="10.01" ry="1.34"/><ellipse class="cls-8" cx="499.32" cy="534.5" rx="9.68" ry="1.29"/><path class="cls-10" d="M142.57,521.41,62,522.7l26.61-5.38s-16.73-3.13-10.67-6,28.72.69,28.72.69S87.69,502,94.05,502.15,142.57,521.41,142.57,521.41Z"/><ellipse class="cls-11" cx="64.29" cy="513.63" rx="8.39" ry="2.02"/></g><g id="grass"><path class="cls-12" d="M519.8,508.28s-2.17-44.63-16.49-74.33c0,0,15.23,42.77,14.2,74.37Z"/><path class="cls-13" d="M487.6,455s18-1.48,25.91,16.06l.56,2.79S495.34,462.48,487.6,455Z"/><path class="cls-14" d="M511.38,461.65s9.71-11.7,4.23-34.27L511,460Z"/><path class="cls-15" d="M508.23,446s-5.48-13.48-17.92-18.11l18,22.1Z"/><path class="cls-16" d="M504.85,437.3s4.08-13.44-2-25.48l.9,23.16Z"/><path class="cls-17" d="M503.31,434s-1.42-18.74-13.38-26.75C489.93,407.2,497.75,424.87,503.31,434Z"/><path class="cls-18" d="M516.81,481.54s13.72-20.7,11.48-40.09c0,0-10.91,17.2-13.67,35.34Z"/><path class="cls-19" d="M517.31,497.68s-9.08-23.87-31-26.1c0,0,19.88,23.48,31.09,28.12Z"/><path class="cls-20" d="M519.2,500.39s17.14-2.94,20.69-29.8c0,0-13,19.79-20.87,28Z"/><path class="cls-21" d="M500.84,477.73a145.84,145.84,0,0,1,16.62,22.81c-6.29-6.35-12.7-12.59-19.51-18.4-3.18-2.72-6.45-5.34-9.83-7.83s-6.7-4.86-10.56-6.29c-1.24-.47-4.46-1.88-5.08.25-.66,2.31,3.56,4.92,4.95,6.17a208.78,208.78,0,0,0,41.63,29l.36.66c-.06.29-.12.57-.2.85-.16.55.61.85.84.4.08.17.17.33.25.5s.24,0,.18-.09l-.33-.72c1.43-5.45-1.82-10.75-4.1-15.5-2.91-6-5.86-12-9.14-17.88-5.42-9.67-11.82-20.41-21.1-26.83a24,24,0,0,0-7.38-3.56c-1.1-.29-2.16-.48-2.81.62-1.89,3.24,1.23,8.24,3.07,10.72C485.34,461.53,493.57,469.34,500.84,477.73Zm17,23.45c.09.15.17.31.26.47a205.49,205.49,0,0,1-19.32-11.75,211.2,211.2,0,0,1-17-13q-2.07-1.76-4.11-3.57l-2.12-1.93a7.23,7.23,0,0,1-1.19-1.1c-2-2.23.21-2.94,3.3-1.38.86.44,1.76.76,2.62,1.21a44.94,44.94,0,0,1,4.63,2.85C496.84,481.21,507.25,491.37,517.82,501.18Zm-15.34-22.37c-6.43-7.56-13.31-14.73-19.77-22.25-3-3.44-7-7.59-6.84-12.48.17-4.36,6.5-.42,8.15.61a35.44,35.44,0,0,1,6,4.81c7.61,7.48,13.23,17.09,18.2,26.43,2.46,4.61,4.76,9.3,7,14,1.84,3.82,4.46,8.13,4.37,12.5l-.91-.48C514.36,493.56,508.58,486,502.48,478.81Z"/><path class="cls-22" d="M501.59,471.7c.18,3.61,1.75,7.13,3,10.46q2.24,6,4.76,11.84c3,6.95,8.61,17.92,8.55,17.64,4.6-6.72,2.73-11.65.6-18.81s-4-15.17-8.1-21.58a22.32,22.32,0,0,0-3.06-3.85c-.75-.75-1.74-1.85-2.91-1.84C501.9,465.57,501.5,470,501.59,471.7Zm1.6-4.6a5.41,5.41,0,0,1,2.63-.24c.5.19.87.77,1.24,1.16a27.21,27.21,0,0,1,5.16,8.12c2.79,6.41,4.61,13.41,6.47,20.15,1.73,6.28,2,8.14-.85,13.95-1.52-6.45-4.16-7.84-6.84-13.89a168.45,168.45,0,0,1-8-20.53,15.6,15.6,0,0,1-.79-5.33C502.25,469.69,502.48,467.65,503.19,467.1Z"/><path class="cls-23" d="M406.57,504.62c-3.22-2.56-7.29,0-7.29,0s3.64-4.52-.43-10.29-7.71-1.5-7.71-1.5-1.5-5.12-6.05-6.85-5.74,3-5.74,3-1.29-5.45-3.22-5.45-1.28,2.46-1.28,2.46a13.66,13.66,0,0,0-8.79-5.15A15.41,15.41,0,0,0,356,483.62s3.21-3.86.43-5.15-4.12,2.26-4.12,2.26-2.8-6.89-8.7-8-6.26,4.07-6.26,4.07-1.08-3.21-2.78-2.57-.43,3.85-.43,3.85a13.16,13.16,0,0,0-7.72-2.35c-4.71,0-5.21,3.14-5.21,3.14s-19.52-5.6-17.37,14.35c0,0-2.93-2-5.13-.75s.34,4.81.34,4.81-25.9-2.06-20.79,9.81c0,0-8.17-1.69-7.78,5.28H410.85S409.78,507.18,406.57,504.62Z"/><path class="cls-24" d="M306.75,512.33s-.72-5.75,5.58-8.63,9.89.54,9.89.54-1.8-2.52.36-3.59,4.49,2.15,4.49,2.15-3.52-7.51,2.47-10.14,9.76,4.57,9.76,4.57,2.34-4.68,4.68-3.78a2.27,2.27,0,0,1,1.44,3.06,12.8,12.8,0,0,1,9.53.54,6.91,6.91,0,0,1,4.14,7.55,5.52,5.52,0,0,1,4.84-.91,6.87,6.87,0,0,1,3.61,3.14s2-4.26,5.75-6a13.35,13.35,0,0,1,7.92-.72s-.9-2.16.72-3.06,4.31,2.88,4.31,2.88,2.88-4.32,6.48-3.24.53,5.21.53,5.21,7.7-.57,8.71,5.65a6.17,6.17,0,0,1,6.56,4.78Z"/><path class="cls-25" d="M308.9,512.33a8.76,8.76,0,0,1,5.46-8.63c6.16-2.87,9.68.54,9.68.54s-1.76-2.52.36-3.59,4.4,2.15,4.4,2.15-3.45-7.51,2.41-10.14,9.56,4.57,9.56,4.57,2.29-4.68,4.57-3.78a2.29,2.29,0,0,1,1.41,3.06,12.29,12.29,0,0,1,9.33.54,6.94,6.94,0,0,1,4.05,7.55,5.33,5.33,0,0,1,4.74-.91,6.76,6.76,0,0,1,3.53,3.14s2-4.26,5.64-6a12.77,12.77,0,0,1,7.74-.72s-.88-2.16.71-3.06,4.22,2.88,4.22,2.88,2.82-4.32,6.34-3.24.53,5.21.53,5.21,7.53-.57,8.51,5.65a6,6,0,0,1,6.43,4.78Z"/><path class="cls-26" d="M533.83,506.35a8.24,8.24,0,0,0-11.41-3,8.31,8.31,0,0,0-9.67-3.5A17.13,17.13,0,0,0,507,493a11.1,11.1,0,0,0-6.08-2.17,7.1,7.1,0,0,0-5.75,2.66c-1.81,2.41-1.75,5.79-1.59,8.87a5.78,5.78,0,0,0-6.17.27,6.56,6.56,0,0,0-2.62,5.9,3.25,3.25,0,0,0-4-.11,3.81,3.81,0,0,0-1.26,4.09h55.89A14.49,14.49,0,0,0,533.83,506.35Z"/><line class="cls-27" x1="495.99" y1="500.98" x2="500.13" y2="512.49"/><path class="cls-2" d="M499.31,498.21c.42.61-.86,2.35-2.86,3.88s-3.95,2.27-4.37,1.66.86-2.34,2.86-3.87S498.89,497.6,499.31,498.21Z"/><path class="cls-28" d="M496.77,499.63c.11.17-.24.64-.78,1.06s-1.08.62-1.19.45.23-.64.78-1.05S496.65,499.47,496.77,499.63Z"/><line class="cls-27" x1="511.29" y1="500.98" x2="507.15" y2="512.49"/><path class="cls-2" d="M508,498.21c-.42.61.85,2.35,2.85,3.88s3.95,2.27,4.37,1.66-.86-2.34-2.85-3.87S508.4,497.6,508,498.21Z"/><path class="cls-28" d="M510.52,499.63c-.12.17.23.64.77,1.06s1.08.62,1.19.45-.23-.64-.77-1.05S510.63,499.47,510.52,499.63Z"/><line class="cls-27" x1="502.06" y1="512.71" x2="503.68" y2="501.58"/><path class="cls-2" d="M507.15,501.73a3.47,3.47,0,1,1-3.47-3.66A3.57,3.57,0,0,1,507.15,501.73Z"/><path class="cls-28" d="M504.65,501.73a1,1,0,1,1-1-1A1,1,0,0,1,504.65,501.73Z"/></g><g id="boxes"><rect class="cls-29" x="128.2" y="254.28" width="66.58" height="41.98"/><rect class="cls-30" x="168.22" y="254.28" width="26.55" height="41.98"/><rect class="cls-8" x="178.31" y="254.28" width="6.37" height="11.07"/><rect class="cls-8" x="144.66" y="254.28" width="6.37" height="11.07"/><rect class="cls-31" x="154.42" y="289.62" width="11.58" height="3.5"/><rect class="cls-32" x="394.14" y="300.43" width="83.29" height="52.52" transform="translate(891.03 625.65) rotate(176.44)"/><rect class="cls-33" x="394.19" y="301.98" width="33.22" height="52.52" transform="translate(841.2 630.31) rotate(176.44)"/><rect class="cls-8" x="406.81" y="301.98" width="7.97" height="52.52" transform="translate(841.2 630.31) rotate(176.44)"/><rect class="cls-8" x="448.83" y="299.36" width="7.97" height="52.52" transform="translate(924.99 622.48) rotate(176.44)"/><rect class="cls-31" x="431.39" y="344.49" width="14.48" height="4.38" transform="translate(897.95 665.43) rotate(176.44)"/><rect class="cls-34" x="100.35" y="296.26" width="96.77" height="61.02"/><rect class="cls-30" x="158.52" y="296.26" width="38.6" height="61.02"/><rect class="cls-8" x="173.19" y="296.26" width="9.26" height="61.02"/><rect class="cls-8" x="124.28" y="296.26" width="9.26" height="61.02"/><rect class="cls-31" x="138.47" y="347.62" width="16.83" height="5.09"/></g><g id="left_leg" data-name="left leg"><g id="left_shoe" data-name="left shoe"><polygon class="cls-35" points="275.65 391.09 257.39 445.22 240.5 432.53 250.09 385.48 275.65 391.09"/><path class="cls-36" d="M262,431.46s-3.92,28.27-.69,33.94,7.24,7.44,6.75,9.69a51.84,51.84,0,0,1-2,6,1.1,1.1,0,0,1-1.44.62c-3.69-1.46-16.3-6.55-20.78-9.37-4.66-2.93-13.26-24.4-15.24-29.46A1.82,1.82,0,0,1,229,441l12.62-13.69a5.38,5.38,0,0,1,2.45,3.22c.36,2,12.13,6.56,12.59,6.36S261.13,430.49,262,431.46Z"/><path class="cls-37" d="M228.59,442.89c2,5.06,10.58,26.53,15.24,29.46,4.48,2.82,17.09,7.91,20.78,9.37a1.1,1.1,0,0,0,1.44-.62c.18-.45.4-1,.64-1.67l-19-8.6a9.06,9.06,0,0,1-4.42-4.3L230.23,439.6,229,441A1.82,1.82,0,0,0,228.59,442.89Z"/><line class="cls-38" x1="260.75" y1="442.95" x2="255.57" y2="443.39"/><line class="cls-38" x1="260.24" y1="448.5" x2="255.06" y2="448.94"/><line class="cls-38" x1="260.24" y1="453.67" x2="255.06" y2="454.12"/></g><g id="left_leg-2" data-name="left leg"><path class="cls-39" d="M229.61,245l27.13,99.17s-9.65,34.17-11.09,45.39a33.53,33.53,0,0,0,30,6.91s17-49.69,17.35-53.86-2-99.14-2-99.14-3-19.69-34.69-19.17S229.61,245,229.61,245Z"/><path class="cls-40" d="M238.11,266.78s41.71,35.46,54.53,46.67c-.19-9.2-.41-19.52-.64-29.36Z"/></g></g><g id="letters"><rect class="cls-41" x="389.94" y="317.98" width="50" height="32.28" transform="translate(37.79 -42.13) rotate(6.09)"/><polygon class="cls-24" points="438.08 352.82 416.17 322.59 388.37 347.52 438.08 352.82"/><polygon class="cls-42" points="438.08 352.82 415.79 326.1 388.37 347.52 438.08 352.82"/><polygon class="cls-24" points="441.51 320.72 414.7 336.32 391.79 315.42 441.51 320.72"/><polygon class="cls-43" points="441.51 320.72 414.94 334.12 391.79 315.42 441.51 320.72"/><circle class="cls-24" cx="414.75" cy="334.53" r="4.26"/><circle class="cls-28" cx="414.96" cy="333.9" r="4.26"/><circle class="cls-44" cx="414.72" cy="333.08" r="3.05"/><polygon class="cls-24" points="429 320.87 427.84 351.73 438.08 352.82 429 320.87"/><rect class="cls-45" x="428.92" y="318.39" width="50" height="32.28" transform="matrix(0.99, -0.13, 0.13, 0.99, -39.63, 61.84)"/><polygon class="cls-24" points="480.8 347.29 452.41 323.04 431.23 353.79 480.8 347.29"/><polygon class="cls-46" points="480.8 347.29 452.87 326.53 431.23 353.79 480.8 347.29"/><polygon class="cls-24" points="476.6 315.28 454.2 336.72 427.03 321.78 476.6 315.28"/><polygon class="cls-47" points="476.6 315.28 453.92 334.53 427.03 321.78 476.6 315.28"/><circle class="cls-24" cx="453.83" cy="334.97" r="4.26"/><circle class="cls-28" cx="453.89" cy="334.31" r="4.26"/><circle class="cls-44" cx="453.46" cy="333.57" r="3.05"/></g><g id="bike"><line class="cls-9" x1="373.29" y1="330.2" x2="485.72" y2="330.2"/><path class="cls-9" d="M389.91,307.61v47.87h75.76a18.31,18.31,0,0,0,18-14.73l6.59-33.14Z"/><line class="cls-9" x1="467.26" y1="307.61" x2="464.39" y2="355.48"/><path class="cls-8" d="M255.57,482.7a2,2,0,0,1-1.25-3.57l37.3-29.72a2,2,0,1,1,2.49,3.13l-37.3,29.72A2,2,0,0,1,255.57,482.7Z"/><path class="cls-48" d="M257.27,451a2,2,0,0,1-2-2A77.65,77.65,0,1,0,100,449a2,2,0,0,1-4,0,81.65,81.65,0,1,1,163.29,0A2,2,0,0,1,257.27,451Z"/><path class="cls-8" d="M417.52,520.07a72.7,72.7,0,1,1,72.7-72.69A72.77,72.77,0,0,1,417.52,520.07Zm0-137.74a65.05,65.05,0,1,0,65.05,65.05A65.12,65.12,0,0,0,417.52,382.33Z"/><path class="cls-31" d="M427.08,447.38a9.56,9.56,0,1,1-9.56-9.56A9.56,9.56,0,0,1,427.08,447.38Z"/><path class="cls-31" d="M417.52,513.17a65.79,65.79,0,1,1,65.79-65.79A65.86,65.86,0,0,1,417.52,513.17Zm0-128.19a62.4,62.4,0,1,0,62.4,62.4A62.47,62.47,0,0,0,417.52,385Z"/><path class="cls-31" d="M424.27,447.16H410.74L416,418.7l-8.63-35.26,1.23-.31,8,32.52,6-32.48,1.25.23-6.49,35.27Zm-12-1.28h10.37l-5.92-24.16Z"/><path class="cls-31" d="M409.34,511.62l-1.24-.3,8.64-35.27L411.5,447.6H425l-7,28.49,6.49,35.26-1.25.23-6-32.47ZM413,448.87,417.48,473l5.91-24.16Z"/><path class="cls-31" d="M353.59,457l-.31-1.24,32.52-8-32.48-6,.23-1.25L388.81,447l28.5-7v13.52l-28.46-5.24Zm38.28-9.38L416,452V441.68Z"/><path class="cls-31" d="M481.46,456.22l-35.26-8.64-28.46,5.24V439.3l28.5,7,35.26-6.5.23,1.26-32.48,6,32.52,8ZM419,440.92v10.37l24.16-4.45Z"/><path class="cls-31" d="M422.83,449.35l-11.48-7.14,19.47-21.4L442.1,386.3l1.21.4-10.4,31.81,22.22-24.42.95.85-24.14,26.53Zm-9.51-7.41,8.81,5.47,7.72-23.64Z"/><path class="cls-31" d="M389.18,504l-1.19-.46,12.06-30.74-23.92,23.41-.89-.91,25.95-25.39L411.76,443l11.48,7.14-21,20.51Zm23.2-59.14-9,22.87,17.78-17.4Z"/><path class="cls-31" d="M413.54,451.13l-21.41-19.47-34.51-11.28.4-1.21,31.82,10.39-24.43-22.22.86-.94,26.52,24.13,27.88,9.11Zm-18.45-18.51,18.17,16.53,5.47-8.8Z"/><path class="cls-31" d="M466.63,487.24l-25.39-25.95L414.3,450.72l7.14-11.49,20.52,21,33.38,13.1-.47,1.19-30.74-12.07,23.41,23.93Zm-50.44-37.15,22.87,9-17.39-17.78Z"/><path class="cls-31" d="M421,453.69l-7.13-11.49,26.93-10.57,25.39-25.95.91.89L443.73,430.5l30.74-12.07.47,1.19-33.38,13.1Zm-5.24-10.86,5.47,8.81,17.4-17.79Z"/><path class="cls-31" d="M366.67,487.81l-.86-.95,24.42-22.22L358.42,475l-.4-1.21,34.51-11.28,21.4-19.48,7.14,11.49-27.88,9.11Zm47-42.76-18.17,16.53,23.64-7.73Z"/><path class="cls-31" d="M411.92,451.16l-10.57-26.93-26-25.39.89-.91,23.92,23.41L388.15,390.6l1.19-.47,13.1,33.38,21,20.52Zm-8.35-24.75,9,22.86,8.8-5.47Z"/><path class="cls-31" d="M443.55,507.05l-11.29-34.51-19.47-21.4L424.28,444l9.11,27.88,24.13,26.52-.94.86-22.22-24.42,10.4,31.81Zm-28.79-55.64,16.54,18.17-7.73-23.64Z"/><path class="cls-8" d="M417.52,520.07a72.7,72.7,0,1,1,72.7-72.69A72.77,72.77,0,0,1,417.52,520.07Zm0-137.74a65.05,65.05,0,1,0,65.05,65.05A65.12,65.12,0,0,0,417.52,382.33Z"/><path class="cls-31" d="M427.08,447.38a9.56,9.56,0,1,1-9.56-9.56A9.56,9.56,0,0,1,427.08,447.38Z"/><path class="cls-31" d="M417.52,513.17a65.79,65.79,0,1,1,65.79-65.79A65.86,65.86,0,0,1,417.52,513.17Zm0-128.19a62.4,62.4,0,1,0,62.4,62.4A62.47,62.47,0,0,0,417.52,385Z"/><path class="cls-31" d="M424.27,447.16H410.74L416,418.7l-8.63-35.26,1.23-.31,8,32.52,6-32.48,1.25.23-6.49,35.27Zm-12-1.28h10.37l-5.92-24.16Z"/><path class="cls-31" d="M409.34,511.62l-1.24-.3,8.64-35.27L411.5,447.6H425l-7,28.49,6.49,35.26-1.25.23-6-32.47ZM413,448.87,417.48,473l5.91-24.16Z"/><path class="cls-31" d="M353.59,457l-.31-1.24,32.52-8-32.48-6,.23-1.25L388.81,447l28.5-7v13.52l-28.46-5.24Zm38.28-9.38L416,452V441.68Z"/><path class="cls-31" d="M481.46,456.22l-35.26-8.64-28.46,5.24V439.3l28.5,7,35.26-6.5.23,1.26-32.48,6,32.52,8ZM419,440.92v10.37l24.16-4.45Z"/><path class="cls-31" d="M422.83,449.35l-11.48-7.14,19.47-21.4L442.1,386.3l1.21.4-10.4,31.81,22.22-24.42.95.85-24.14,26.53Zm-9.51-7.41,8.81,5.47,7.72-23.64Z"/><path class="cls-31" d="M389.18,504l-1.19-.46,12.06-30.74-23.92,23.41-.89-.91,25.95-25.39L411.76,443l11.48,7.14-21,20.51Zm23.2-59.14-9,22.87,17.78-17.4Z"/><path class="cls-31" d="M413.54,451.13l-21.41-19.47-34.51-11.28.4-1.21,31.82,10.39-24.43-22.22.86-.94,26.52,24.13,27.88,9.11Zm-18.45-18.51,18.17,16.53,5.47-8.8Z"/><path class="cls-31" d="M466.63,487.24l-25.39-25.95L414.3,450.72l7.14-11.49,20.52,21,33.38,13.1-.47,1.19-30.74-12.07,23.41,23.93Zm-50.44-37.15,22.87,9-17.39-17.78Z"/><path class="cls-31" d="M421,453.69l-7.13-11.49,26.93-10.57,25.39-25.95.91.89L443.73,430.5l30.74-12.07.47,1.19-33.38,13.1Zm-5.24-10.86,5.47,8.81,17.4-17.79Z"/><path class="cls-31" d="M366.67,487.81l-.86-.95,24.42-22.22L358.42,475l-.4-1.21,34.51-11.28,21.4-19.48,7.14,11.49-27.88,9.11Zm47-42.76-18.17,16.53,23.64-7.73Z"/><path class="cls-31" d="M411.92,451.16l-10.57-26.93-26-25.39.89-.91,23.92,23.41L388.15,390.6l1.19-.47,13.1,33.38,21,20.52Zm-8.35-24.75,9,22.86,8.8-5.47Z"/><path class="cls-31" d="M443.55,507.05l-11.29-34.51-19.47-21.4L424.28,444l9.11,27.88,24.13,26.52-.94.86-22.22-24.42,10.4,31.81Zm-28.79-55.64,16.54,18.17-7.73-23.64Z"/><circle class="cls-28" cx="417.55" cy="447.13" r="14.22"/><circle class="cls-8" cx="417.55" cy="447.13" r="6.71"/><path class="cls-49" d="M339.72,451a2,2,0,0,1-2-2,81.74,81.74,0,0,1,81.65-81.65,2,2,0,0,1,0,4A77.75,77.75,0,0,0,341.72,449,2,2,0,0,1,339.72,451Z"/><path class="cls-8" d="M176.42,520.07a72.7,72.7,0,1,1,72.69-72.69A72.78,72.78,0,0,1,176.42,520.07Zm0-137.74a65.05,65.05,0,1,0,65,65.05A65.12,65.12,0,0,0,176.42,382.33Z"/><path class="cls-31" d="M186,447.38a9.56,9.56,0,1,1-9.56-9.56A9.56,9.56,0,0,1,186,447.38Z"/><path class="cls-31" d="M176.42,513.17a65.79,65.79,0,1,1,65.79-65.79A65.87,65.87,0,0,1,176.42,513.17Zm0-128.19a62.4,62.4,0,1,0,62.39,62.4A62.47,62.47,0,0,0,176.42,385Z"/><path class="cls-31" d="M183.16,447.16H169.64l5.24-28.46-8.64-35.26,1.24-.31,8,32.52,6-32.48,1.25.23-6.49,35.27Zm-12-1.28h10.36l-5.92-24.16Z"/><path class="cls-31" d="M168.23,511.62l-1.24-.3,8.64-35.27-5.24-28.45h13.52l-7,28.49,6.49,35.26-1.25.23-6-32.47Zm3.69-62.75L176.37,473l5.92-24.16Z"/><path class="cls-31" d="M112.48,457l-.31-1.24,32.52-8-32.48-6,.23-1.25L147.71,447l28.49-7v13.52l-28.46-5.24Zm38.28-9.38L174.92,452V441.68Z"/><path class="cls-31" d="M240.35,456.22l-35.26-8.64-28.46,5.24V439.3l28.5,7,35.26-6.5.23,1.26-32.47,6,32.51,8Zm-62.44-15.3v10.37l24.16-4.45Z"/><path class="cls-31" d="M181.72,449.35l-11.48-7.14,19.47-21.4L201,386.3l1.21.4-10.4,31.81L214,394.09l.95.85-24.13,26.53Zm-9.51-7.41,8.81,5.47,7.72-23.64Z"/><path class="cls-31" d="M148.07,504l-1.19-.46,12.06-30.74L135,496.22l-.89-.91,26-25.39L170.65,443l11.48,7.14-21,20.51Zm23.21-59.14-9,22.87,17.78-17.4Z"/><path class="cls-31" d="M172.43,451.13,151,431.66l-34.52-11.28.4-1.21,31.82,10.39L124.3,407.34l.86-.94,26.52,24.13,27.88,9.11ZM154,432.62l18.17,16.53,5.47-8.8Z"/><path class="cls-31" d="M225.52,487.24l-25.39-25.95-26.94-10.57,7.14-11.49,20.52,21,33.38,13.1-.47,1.19L203,462.42l23.41,23.93Zm-50.43-37.15,22.86,9-17.39-17.78Z"/><path class="cls-31" d="M179.94,453.69,172.8,442.2l26.93-10.57,25.39-25.95.91.89L202.62,430.5l30.74-12.07.47,1.19-33.38,13.1Zm-5.25-10.86,5.47,8.81,17.4-17.79Z"/><path class="cls-31" d="M125.56,487.81l-.86-.95,24.43-22.22L117.31,475l-.4-1.21,34.51-11.28,21.4-19.48L180,454.56l-27.88,9.11Zm47-42.76-18.17,16.53L178,453.85Z"/><path class="cls-31" d="M170.81,451.16l-10.57-26.93-26-25.39.89-.91,23.93,23.41L147,390.6l1.19-.47,13.1,33.38,21,20.52Zm-8.35-24.75,9,22.86,8.8-5.47Z"/><path class="cls-31" d="M202.44,507.05l-11.28-34.51-19.48-21.4L183.17,444l9.11,27.88,24.13,26.52-.94.86-22.22-24.42,10.4,31.81Zm-28.78-55.64,16.53,18.17-7.73-23.64Z"/><path class="cls-50" d="M417.55,450.13a3,3,0,0,1-2.8-1.94L365.63,318.44a3,3,0,0,1,5.61-2.13l49.12,129.76a3,3,0,0,1-1.75,3.87A3,3,0,0,1,417.55,450.13Z"/><polygon class="cls-51" points="300.79 457.87 284.94 444.09 375.69 339.75 384.67 361.43 300.79 457.87"/><polygon class="cls-8" points="366.53 328.58 352.97 292.76 377.19 284.37 380.95 295.24 367.92 299.76 377.29 324.51 366.53 328.58"/><rect class="cls-8" x="222.47" y="281.5" width="6" height="35.48" transform="translate(-102.06 117.28) rotate(-23.95)"/><rect class="cls-52" x="257.77" y="309.08" width="10" height="148.28" transform="translate(-132.93 139.65) rotate(-23.95)"/><rect class="cls-53" x="257.82" y="357.96" width="122.88" height="5" transform="translate(-87.56 102.86) rotate(-16.13)"/><path class="cls-8" d="M292,429.36l-5.91,42.35-108.9-11v-27L292,429.36m.87-.79-116.43,4.34v28.44l110.29,11.18,6.14-44Z"/><circle class="cls-28" cx="176.44" cy="447.13" r="14.22"/><circle class="cls-28" cx="292.87" cy="450.98" r="22.4"/><circle class="cls-8" cx="292.87" cy="450.98" r="9.66"/><path class="cls-54" d="M249.72,351.67a1,1,0,0,0-1.41.18l-4.6,6-139.28-1.7v47.38l72.25,44.92,68.29-89,0,0,4.9-6.38A1,1,0,0,0,249.72,351.67Zm-143.29,6.52,69,.84v86.3l-69-42.9Zm71,86V359.05l64.74.79Z"/><rect class="cls-28" x="252.06" y="469.71" width="6" height="21.98" transform="translate(-286.72 531.74) rotate(-67.43)"/><path class="cls-8" d="M292.87,453a2,2,0,0,1-1.33-3.5l25.89-23a2,2,0,0,1,2.66,3l-25.9,23A2,2,0,0,1,292.87,453Z"/><line class="cls-9" x1="414.83" y1="307.61" x2="414.83" y2="355.48"/><line class="cls-9" x1="441.3" y1="307.61" x2="440.07" y2="355.48"/><path class="cls-55" d="M245,284.37H199.61a6.5,6.5,0,0,1,0-13H245a6.5,6.5,0,0,1,0,13Z"/><path class="cls-56" d="M245,271.37h-.56a6.74,6.74,0,0,1,.28,1.91,6.5,6.5,0,0,1-6.5,6.5H193.4a6.49,6.49,0,0,0,6.21,4.59H245a6.5,6.5,0,0,0,0-13Z"/><circle class="cls-8" cx="176.44" cy="447.13" r="5.69"/><rect class="cls-28" x="309.3" y="424.93" width="21.98" height="6"/></g><g id="man"><g id="head"><path class="cls-57" d="M420.85,139a2.29,2.29,0,0,0-1.23-2.15c-1.3-.51-5-.63-5.53,1.29S420.85,139,420.85,139Z"/><path class="cls-8" d="M460.61,171.35c.71.29,1.17,1,1.3,3s0,2.08-.65,2-15.39-4.76-15.39-4.76S455.88,169.43,460.61,171.35Z"/><path class="cls-58" d="M437.59,169.5s-16,33.63-21.66,34.93-18.45-9.78-18.45-9.78l-18.91,3.2-6-25S420.05,148.11,437.59,169.5Z"/><path class="cls-59" d="M433.29,178s-3.51,9.65-3,11.34c.71,2.43,1.68,4.65-1.56,4.65a8.18,8.18,0,0,1-3.47-1Z"/><path class="cls-60" d="M422.89,196.34s-5-2.71-4.84-6"/><path class="cls-60" d="M422,197.62a7.17,7.17,0,0,1-1.15-.75"/><rect class="cls-61" x="425.9" y="177.31" width="2.35" height="3.67" rx="1.01" transform="translate(103.01 -151.71) rotate(22.84)"/><path class="cls-61" d="M430.14,175.87s-4.4-2.7-8.37-1.07c0,0,2.84-2.59,5.45-2.36s4.56,1.46,4.54,1.77S431.6,176.26,430.14,175.87Z"/><path class="cls-62" d="M405.36,170.65s-4.51-.37-1.12,4.9"/><path class="cls-62" d="M403,172.57s2.21.19,2.35,1.54"/><path class="cls-35" d="M399.32,175.93s2.2,4.78,4.85,4.54c0,0-5.27.79-7.16-3.48S399.32,175.93,399.32,175.93Z"/><path class="cls-35" d="M399.32,175.93s-10.66,6.75-26.75-3.13l1.7-.83Z"/><path class="cls-63" d="M402.71,156.38h0l-11.68-4.9a16.52,16.52,0,0,1-6,.94c-4,.07,2.35,4.7,2.35,4.7l.64,1.37c-.85.25-1.34.42-1.34.42-16-.83-8.56,4.06-8.56,4.06s-19.52-1.37-4,9.07,25.2,3.89,25.2,3.89-3-9.68,3.86-11,7.73,3.33,7.73,3.33.35,3.81,2.11,4.83,8.44-10.37,8.26-10.52C415.85,157.84,408.93,156.43,402.71,156.38Z"/><path class="cls-64" d="M402.27,155.14h0s-13.63-4-17.68-4,1.65,6.49,1.65,6.49c-16-.83-8.56,4.06-8.56,4.06s-19.52-1.37-4,9.07,25.21,3.89,25.21,3.89-3-9.68,3.86-11,7.73,3.33,7.73,3.33.34,3.81,2.1,4.83,8.45-10.37,8.27-10.52C415.41,156.6,408.49,155.19,402.27,155.14Z"/><path class="cls-24" d="M419.14,160.92c-.25-.17-.5-.3-.75-.46-11.56-1.17-23.05-2-30.55-2.38l.2.41c-.85.25-1.34.42-1.34.42,19.89,1.94,36.3,11.58,46.56,19.31,2.57-5,4.33-8.72,4.33-8.72C433,163.93,426.41,161.48,419.14,160.92Z"/><path class="cls-65" d="M386.7,158.91s19.84.2,34.12,4.89,21.46,10.53,26.35,9.54,11-3.08,13.44-2l-21.33-7.56s3.72-9.59,1-12.26-11.54-12-22.76-13-20-1.76-26.45,13c0,0,1.81,1.15,1.77,1.86s-5.42,3.78-5.42,3.78Z"/><polygon class="cls-35" points="397.48 194.65 395.31 192.85 396 194.9 397.48 194.65"/><path class="cls-24" d="M439.28,163.74s-3.67.18-11.93,0a53.43,53.43,0,0,1-9.45-.81c1,.27,2,.56,2.92.87,3.36,1.11,6.31,2.27,8.95,3.4l10.1-3.25Z"/><path class="cls-66" d="M436.48,152.13c0,4.11-1.7,11.69-1.7,11.69l4.5-.08s3.72-9.59,1-12.26c-2.45-2.4-9.79-10.12-19.36-12.45C421.91,139.61,436.48,148.16,436.48,152.13Z"/><path class="cls-24" d="M418.5,138.57l-1-.14c-11.22-1-20-1.76-26.45,13,0,0,1.81,1.15,1.77,1.86s-5.42,3.78-5.42,3.78l-.7,1.79a160.66,160.66,0,0,1,21.52,1.94,114.06,114.06,0,0,1,2.11-15.93C411.77,139.15,417.61,138.62,418.5,138.57Z"/></g><g id="right_leg" data-name="right leg"><g id="right_shoes" data-name="right shoes"><polygon class="cls-67" points="323.65 372.96 307.02 404.14 289.79 396.07 305.85 358.47 323.65 372.96"/><path class="cls-35" d="M321.6,376.8s-11.19-2.38-20.1-8.15l4.35-10.18L323.65,373Z"/><path class="cls-68" d="M311.49,395s6.1,15.88,9.75,17.71,8.22,1.63,9.39,5.15a18.84,18.84,0,0,1,.84,6,1.24,1.24,0,0,1-1.24,1.22H311.46a11.81,11.81,0,0,1-6.57-2l-23.08-15.52a1.43,1.43,0,0,1-.38-2l11.32-16.49s2.63,2,2.95,3.5,10.29,7,11.59,6.53S310.4,392.67,311.49,395Z"/><path class="cls-37" d="M281.81,407.61l23.08,15.52a11.81,11.81,0,0,0,6.57,2h18.77a1.24,1.24,0,0,0,1.24-1.22,19.32,19.32,0,0,0-.08-2.16l-20.88-.2a6.17,6.17,0,0,1-3.42-1.09l-24.31-16.81-1.35,2A1.43,1.43,0,0,0,281.81,407.61Z"/><line class="cls-38" x1="313.96" y1="401.78" x2="309.33" y2="403.92"/><line class="cls-38" x1="315.76" y1="405.56" x2="311.11" y2="407.71"/><line class="cls-38" x1="317.87" y1="409.33" x2="313.41" y2="411.4"/><circle class="cls-69" cx="292.87" cy="402.98" r="3.28"/></g><g id="right_leg-2" data-name="right leg"><path class="cls-70" d="M248.13,200.7s-9.1,7.42-14.28,12.41S223,228.27,223.09,232s3.39,26.84,12.52,33.23S322,309.47,322,309.47s-.49,4.16-.25,4.69,1.81,2.6,1.81,2.6a162.69,162.69,0,0,0-10.85,20.1c-5.29,11.64-11,28.66-11,28.66s6.4,7.05,20.88,10.86c0,0,37.25-58.21,38.21-60s-.88-17.09-1.53-18.52-43.83-45.13-43.83-45.13Z"/><path class="cls-8" d="M322.72,260.08c-1.1,5.59-3.84,21-1.29,24.18S349.6,297,359.87,300.82a16.83,16.83,0,0,0-.61-3C358.78,296.77,335.05,272.6,322.72,260.08Z"/><polygon class="cls-8" points="321.75 314.16 329.28 315.48 323.55 316.75 321.75 314.16"/><path class="cls-40" d="M248.13,200.7s-4,3.26-8.19,6.9c24.72,7.08,63,35.55,73,43.2Z"/></g></g><g id="body"><path class="cls-71" d="M343.43,167.94s-8.3-4.27-17.1-3,5.86,5.66,5.86,5.66Z"/><polygon class="cls-8" points="387.17 196.34 390.89 205.15 386.41 206.68 378.56 197.85 387.17 196.34"/><path class="cls-8" d="M370.48,172l5.87-.8a180.54,180.54,0,0,1,11.22,43.5s-7.57,8.91-25.18,17.71Z"/><path class="cls-72" d="M370.48,172s14.09,35.79-8.09,60.41l-47,20.32s-29.08-17.09-42.78-30.13-24.52-21.87-24.52-21.87l-14.28,12.41s-18.88-21.62-3.62-21.23,50.77-6.08,68.48-11.35,44.41-13.79,49.4-13S370.48,172,370.48,172Z"/><path class="cls-8" d="M225.52,193l-.13.09,0,0c-4.93,4.59,8.49,20,8.49,20l14.28-12.41S230.77,189.08,225.52,193Z"/><path class="cls-73" d="M316.87,226.48c-3,.52-38.63-40.94-38.63-40.94s3.41,12.76,17.5,28.42c13.25,14.72-19.69,8.86-43.29-9.64,4.4,3.76,11.75,10.2,20.2,18.25,13.7,13,42.78,30.13,42.78,30.13l23.14-10-1.52-34.37S319.87,226,316.87,226.48Z"/><path class="cls-74" d="M300.93,212.14l1.54-2.57c-.13-.08-12.37-7.61-22.69-24.36l-3.12.65C287.44,203.88,300.33,211.79,300.93,212.14Z"/><path class="cls-24" d="M302.47,209.57a47,47,0,0,1-4.85-3.6,3.86,3.86,0,0,0-3.13,1.33,50.52,50.52,0,0,0,6.44,4.84Z"/><path class="cls-8" d="M339.5,221s-20.28-3.56-35-12.94-11.61,17.8,27.45,29.41Z"/><path class="cls-75" d="M339.79,220.4s-20.27-3.56-35-13-11.61,17.81,27.46,29.41Z"/><polygon class="cls-24" points="337.05 208.31 315.44 252.7 338.57 242.69 337.05 208.31"/><path class="cls-76" d="M332.19,170.64s-54.09,16-55.53,16.35-24.21,3.07-24.21,3.07-1.73-6.35,2-7.47,59-19.57,59-19.57Z"/><path class="cls-24" d="M332.19,170.64,313.48,163s-50.37,16.82-58.18,19.31c3.88-.39,9.31-.85,10.37-.4s-1.84,4.49-3.88,7c6.47-.78,14.06-1.73,14.87-1.95C278.1,186.6,332.19,170.64,332.19,170.64Z"/><path class="cls-77" d="M332.19,170.64s-4.49-9.12-9.19-9.57S293.59,164,293.59,164s-35.68,14.07-34.5,14.33,14.67-1.56,15.58,1.5,2,7.21,2,7.21Z"/><path class="cls-78" d="M324.71,161.59a5.39,5.39,0,0,0-2.75.06c-.34.11-46.63,15.26-44.42,15.59,1.75.26,25.28-.62,35.31-.91l19.34-5.69S328.73,163.62,324.71,161.59Z"/><polygon class="cls-79" points="266.33 175.98 292.12 165.3 296 165.3 270.96 175.98 266.33 175.98"/></g><g id="right_arm" data-name="right arm"><path class="cls-8" d="M391.94,321.67a5.75,5.75,0,0,1-3-10.64c3.51-2.17,8.79-6.91,9.54-10.68a3.13,3.13,0,0,0-.62-2.68c-2.78-3.85-12.9-3.57-18.86-2.18a5.75,5.75,0,0,1-2.66-11.19c2.28-.54,22.48-4.95,30.84,6.63a14.63,14.63,0,0,1,2.58,11.66c-2,10.09-13.48,17.42-14.78,18.22A5.75,5.75,0,0,1,391.94,321.67Z"/><path class="cls-80" d="M357.79,271.9l35.42,22.5s11.1-1.07,12.67-.54,6,7.44,5.86,8.52a6.68,6.68,0,0,1-1.29,2.49,5,5,0,0,1-1.49,3s-.57,2.74-2.45,3.4a6.23,6.23,0,0,1-4.4,3.86l1.16-1.13s-7.75-6.86-9.9-6.34l-1.5,1.27a12.69,12.69,0,0,1-3-3.32l-47-17.55Z"/><polygon class="cls-35" points="357.79 271.9 344.34 288.98 341.85 288.04 357.79 271.9"/><path class="cls-72" d="M337.05,208.32c-6.55,12-15.55,61.43-14.67,67s19.37,13.89,19.37,13.89c6.26-4.5,16-17.32,16-17.32l-7-6s3-2.83,3.32-3.17-1.64-3.41-1.64-3.41l18.39-46.05C376,198.92,343.61,196.28,337.05,208.32Z"/><path class="cls-81" d="M352,259s16.69-40,17.61-50.64-10.7-7.28-11.74-4.41S352,259,352,259Z"/><polygon class="cls-73" points="350.8 265.94 343.28 268.87 352.97 267.79 350.8 265.94"/><path class="cls-82" d="M333.18,218.53a325.13,325.13,0,0,0-7.62,32.74"/><line class="cls-82" x1="325.11" y1="253.74" x2="323.94" y2="260.58"/></g></g><g id="wind"><path class="cls-83" d="M59.87,152.47S44.46,157.22,51,172.05c0,0,3.1-4.94,10.46-5.45S72.42,148.43,59.87,152.47Z"/><path class="cls-24" d="M64.3,153.68s-12.75,4.88-13.09,16.42c0,0,.51-5.89,4.26-8.83S64.3,153.68,64.3,153.68Z"/><path class="cls-84" d="M57.16,153.66c-4.09,2.18-10.9,7.63-6.14,18.39C51,172.05,48.51,160.7,57.16,153.66Z"/><path class="cls-85" d="M203.26,193.74s-14,5.93-25.69-8.54c0,0,12.52-6.46,19.17-2S203.26,193.74,203.26,193.74Z"/><path class="cls-24" d="M203.26,193.74s-3-11-22.92-8.32C180.34,185.42,198.7,186.5,203.26,193.74Z"/><path class="cls-86" d="M445.87,228s-66.7,51.12-152.83,2S131.26,117.17,71.78,150"/><path class="cls-86" d="M129.17,147.66c-13.34-2.71-26.13-3-38.32,0"/><path class="cls-86" d="M400.34,256c-22.39,5.31-51.85,6.48-85.21-6.61"/></g></g></g></g></svg>